<svg xmlns="http://www.w3.org/2000/svg" width="18" height="18" viewBox="0 0 18 18"><defs><style>.a{fill:#fff;stroke:#000;}.b{stroke:none;}.c{fill:none;}</style></defs><g transform="translate(-692 -1307)"><g class="a" transform="translate(692 1307)"><circle class="b" cx="9" cy="9" r="9"/><circle class="c" cx="9" cy="9" r="8.5"/></g><path d="M28.966,17.351a1.744,1.744,0,0,0-1.166.439l-2.7-1.774a1.7,1.7,0,0,0,.135-.659,1.757,1.757,0,1,0-.473,1.2l2.653,1.74a1.773,1.773,0,0,0-.186.794,1.709,1.709,0,0,0,.237.879l-2.67,1.74a1.772,1.772,0,1,0,.321.558l2.754-1.791a1.756,1.756,0,1,0,1.1-3.126Zm-5.509-.879a1.115,1.115,0,1,1,1.115-1.115A1.114,1.114,0,0,1,23.457,16.473Zm0,7.5a1.115,1.115,0,1,1,1.115-1.115A1.114,1.114,0,0,1,23.457,23.975Zm5.509-3.751a1.115,1.115,0,1,1,1.115-1.115A1.114,1.114,0,0,1,28.966,20.224Z" transform="translate(675.403 1296.73)"/></g></svg>