<svg xmlns="http://www.w3.org/2000/svg" width="121.495" height="39.423" viewBox="0 0 121.495 39.423"><defs><style>.a{fill:#d72f3c;}</style></defs><g transform="translate(-619.3 -431)"><g transform="translate(705.299 431)"><path class="a" d="M1133.116,441.577a16.841,16.841,0,0,0-3.8-5.844,15.642,15.642,0,0,0-5.665-3.55,20.015,20.015,0,0,0-6.9-1.183,19.356,19.356,0,0,0-6.759,1.183,15.951,15.951,0,0,0-5.665,3.55,17.293,17.293,0,0,0-3.89,5.844,20.745,20.745,0,0,0-1.434,8.049,21.817,21.817,0,0,0,1.38,8.049,16.522,16.522,0,0,0,3.8,5.809,15.844,15.844,0,0,0,5.665,3.532,20.014,20.014,0,0,0,6.9,1.183,20.51,20.51,0,0,0,7.028-1.183,15.163,15.163,0,0,0,5.629-3.532,16.625,16.625,0,0,0,3.729-5.809,24.307,24.307,0,0,0-.018-16.1Zm-7.547,12.8a10.79,10.79,0,0,1-1.847,3.621,8.3,8.3,0,0,1-2.976,2.348,10.1,10.1,0,0,1-8,0,8.2,8.2,0,0,1-2.958-2.348,10.787,10.787,0,0,1-1.847-3.621,16.073,16.073,0,0,1-.645-4.733,16.294,16.294,0,0,1,.645-4.715,10.971,10.971,0,0,1,1.847-3.657,8.647,8.647,0,0,1,2.958-2.366,8.993,8.993,0,0,1,4.016-.843,9.246,9.246,0,0,1,3.98.825,8.109,8.109,0,0,1,2.976,2.349,10.641,10.641,0,0,1,1.847,3.657,17.743,17.743,0,0,1,0,9.484Z" transform="translate(-1099 -431)"/></g><g transform="translate(724.32 458.411)"><rect class="a" width="8.032" height="12.011" transform="translate(0 0)"/></g><g transform="translate(702.018 431.843)"><path class="a" d="M1080.7,435.7h8.031v35.658H1080.7Z" transform="translate(-1080.7 -435.7)"/></g><g transform="translate(679.196 431.43)"><path class="a" d="M963.834,433.4q8.014,0,12.3,2.85t4.267,8.874a10.023,10.023,0,0,1-1.721,6.1,11.335,11.335,0,0,1-4.966,3.675q1.076,1.345,2.259,3.066c.789,1.147,1.578,2.349,2.349,3.6s1.524,2.564,2.241,3.908c.717,1.363,1.38,2.689,2.008,3.98H973.6q-.968-1.748-1.99-3.55c-.663-1.2-1.362-2.366-2.062-3.5s-1.4-2.205-2.1-3.209c-.681-1-1.38-1.936-2.062-2.761h-3.962v13.015H953.4V434.314a43.6,43.6,0,0,1,5.432-.717C960.679,433.472,962.364,433.4,963.834,433.4Zm.466,6.83c-.592,0-1.112.018-1.578.054s-.9.072-1.309.108v9.663h2.259c3.012,0,5.181-.376,6.49-1.129a4.08,4.08,0,0,0,1.954-3.854,3.927,3.927,0,0,0-1.972-3.729A12.333,12.333,0,0,0,964.3,440.23Z" transform="translate(-953.4 -433.4)"/></g><g transform="translate(648.647 431)"><path class="a" d="M817.116,441.577a16.841,16.841,0,0,0-3.8-5.844,15.643,15.643,0,0,0-5.665-3.55,20.014,20.014,0,0,0-6.9-1.183,19.355,19.355,0,0,0-6.759,1.183,15.951,15.951,0,0,0-5.665,3.55,17.294,17.294,0,0,0-3.89,5.844A20.746,20.746,0,0,0,783,449.627a21.817,21.817,0,0,0,1.38,8.049,16.523,16.523,0,0,0,3.8,5.809,15.844,15.844,0,0,0,5.665,3.532,20.015,20.015,0,0,0,6.9,1.183,20.509,20.509,0,0,0,7.028-1.183,15.164,15.164,0,0,0,5.629-3.532,16.625,16.625,0,0,0,3.729-5.809,24.308,24.308,0,0,0-.018-16.1Zm-7.547,12.8A10.79,10.79,0,0,1,807.722,458a8.3,8.3,0,0,1-2.976,2.348,10.1,10.1,0,0,1-8,0A8.2,8.2,0,0,1,793.792,458a10.788,10.788,0,0,1-1.847-3.621,16.075,16.075,0,0,1-.645-4.733,16.3,16.3,0,0,1,.645-4.715,10.974,10.974,0,0,1,1.847-3.657,8.647,8.647,0,0,1,2.958-2.366,8.993,8.993,0,0,1,4.016-.843,9.245,9.245,0,0,1,3.98.825,8.109,8.109,0,0,1,2.976,2.349,10.641,10.641,0,0,1,1.846,3.657,17.743,17.743,0,0,1,0,9.484Z" transform="translate(-783 -431)"/></g><g transform="translate(667.669 458.411)"><rect class="a" width="8.032" height="12.011" transform="translate(0 0)"/></g><g transform="translate(619.3 431)"><path class="a" d="M653.416,441.577a16.841,16.841,0,0,0-3.8-5.844,15.642,15.642,0,0,0-5.665-3.55,20.014,20.014,0,0,0-6.9-1.183,19.355,19.355,0,0,0-6.759,1.183,15.95,15.95,0,0,0-5.665,3.55,17.293,17.293,0,0,0-3.89,5.844,20.746,20.746,0,0,0-1.434,8.049,21.817,21.817,0,0,0,1.38,8.049,16.522,16.522,0,0,0,3.8,5.809,15.844,15.844,0,0,0,5.665,3.532,20.014,20.014,0,0,0,6.9,1.183,20.509,20.509,0,0,0,7.028-1.183,15.164,15.164,0,0,0,5.629-3.532,16.625,16.625,0,0,0,3.729-5.809,21.826,21.826,0,0,0,1.362-8.049A21.519,21.519,0,0,0,653.416,441.577Zm-7.547,12.8A10.79,10.79,0,0,1,644.022,458a8.3,8.3,0,0,1-2.976,2.348,10.1,10.1,0,0,1-8,0A8.2,8.2,0,0,1,630.092,458a10.788,10.788,0,0,1-1.847-3.621,16.075,16.075,0,0,1-.645-4.733,16.3,16.3,0,0,1,.645-4.715,10.974,10.974,0,0,1,1.847-3.657,8.647,8.647,0,0,1,2.958-2.366,8.993,8.993,0,0,1,4.016-.843,9.246,9.246,0,0,1,3.98.825,8.109,8.109,0,0,1,2.976,2.349,10.641,10.641,0,0,1,1.847,3.657,17.743,17.743,0,0,1,0,9.484Z" transform="translate(-619.3 -431)"/></g><g transform="translate(638.321 458.411)"><rect class="a" width="8.032" height="12.011" transform="translate(0 0)"/></g></g></svg>