<svg xmlns="http://www.w3.org/2000/svg" width="19.507" height="19.486" viewBox="0 0 19.507 19.486"><defs><style>.a{fill:#fff;}</style></defs><path class="a" d="M17.931,18.914l-.62.427A8.259,8.259,0,0,1,4.3,12.569a8.277,8.277,0,1,1,15.063,4.743l-.427.62L21.8,20.794l-.983.983ZM12.569,5.5a6.978,6.978,0,0,0-5,2.072,7.067,7.067,0,0,0-2.072,5,7.076,7.076,0,0,0,7.072,7.072,6.942,6.942,0,0,0,5-2.072,7.03,7.03,0,0,0,2.072-5,6.942,6.942,0,0,0-2.072-5A7.067,7.067,0,0,0,12.569,5.5Z" transform="translate(-3.381 -3.381)"/><path d="M9.187,0a9.187,9.187,0,0,0,0,18.375,9.08,9.08,0,0,0,5.256-1.667l2.649,2.649a.465.465,0,0,0,.641,0l1.645-1.645a.438.438,0,0,0,0-.62l-2.671-2.649A9.179,9.179,0,0,0,9.187,0Zm0,15.341a6.153,6.153,0,1,1,4.359-1.795,6.145,6.145,0,0,1-4.359,1.795Z" transform="translate(0)"/></svg>